G04 #@! TF.GenerationSoftware,KiCad,Pcbnew,(5.1.6)-1*
G04 #@! TF.CreationDate,2020-09-05T20:26:24+02:00*
G04 #@! TF.ProjectId,netmeter_panel_downlink,6e65746d-6574-4657-925f-70616e656c5f,rev?*
G04 #@! TF.SameCoordinates,Original*
G04 #@! TF.FileFunction,Legend,Top*
G04 #@! TF.FilePolarity,Positive*
%FSLAX46Y46*%
G04 Gerber Fmt 4.6, Leading zero omitted, Abs format (unit mm)*
G04 Created by KiCad (PCBNEW (5.1.6)-1) date 2020-09-05 20:26:24*
%MOMM*%
%LPD*%
G01*
G04 APERTURE LIST*
%ADD10C,0.500000*%
%ADD11C,0.200000*%
%ADD12C,0.250000*%
%ADD13C,0.750000*%
%ADD14C,0.400000*%
G04 APERTURE END LIST*
D10*
X103076190Y-79976190D02*
X103076190Y-77376190D01*
X103695238Y-77376190D01*
X104066666Y-77500000D01*
X104314285Y-77747619D01*
X104438095Y-77995238D01*
X104561904Y-78490476D01*
X104561904Y-78861904D01*
X104438095Y-79357142D01*
X104314285Y-79604761D01*
X104066666Y-79852380D01*
X103695238Y-79976190D01*
X103076190Y-79976190D01*
X106047619Y-79976190D02*
X105800000Y-79852380D01*
X105676190Y-79728571D01*
X105552380Y-79480952D01*
X105552380Y-78738095D01*
X105676190Y-78490476D01*
X105800000Y-78366666D01*
X106047619Y-78242857D01*
X106419047Y-78242857D01*
X106666666Y-78366666D01*
X106790476Y-78490476D01*
X106914285Y-78738095D01*
X106914285Y-79480952D01*
X106790476Y-79728571D01*
X106666666Y-79852380D01*
X106419047Y-79976190D01*
X106047619Y-79976190D01*
X107780952Y-78242857D02*
X108276190Y-79976190D01*
X108771428Y-78738095D01*
X109266666Y-79976190D01*
X109761904Y-78242857D01*
X110752380Y-78242857D02*
X110752380Y-79976190D01*
X110752380Y-78490476D02*
X110876190Y-78366666D01*
X111123809Y-78242857D01*
X111495238Y-78242857D01*
X111742857Y-78366666D01*
X111866666Y-78614285D01*
X111866666Y-79976190D01*
X113476190Y-79976190D02*
X113228571Y-79852380D01*
X113104761Y-79604761D01*
X113104761Y-77376190D01*
X114466666Y-79976190D02*
X114466666Y-78242857D01*
X114466666Y-77376190D02*
X114342857Y-77500000D01*
X114466666Y-77623809D01*
X114590476Y-77500000D01*
X114466666Y-77376190D01*
X114466666Y-77623809D01*
X115704761Y-78242857D02*
X115704761Y-79976190D01*
X115704761Y-78490476D02*
X115828571Y-78366666D01*
X116076190Y-78242857D01*
X116447619Y-78242857D01*
X116695238Y-78366666D01*
X116819047Y-78614285D01*
X116819047Y-79976190D01*
X118057142Y-79976190D02*
X118057142Y-77376190D01*
X118304761Y-78985714D02*
X119047619Y-79976190D01*
X119047619Y-78242857D02*
X118057142Y-79233333D01*
X105057142Y-84376190D02*
X105057142Y-81776190D01*
X105923809Y-83633333D01*
X106790476Y-81776190D01*
X106790476Y-84376190D01*
X108895238Y-83014285D02*
X109266666Y-83138095D01*
X109390476Y-83261904D01*
X109514285Y-83509523D01*
X109514285Y-83880952D01*
X109390476Y-84128571D01*
X109266666Y-84252380D01*
X109019047Y-84376190D01*
X108028571Y-84376190D01*
X108028571Y-81776190D01*
X108895238Y-81776190D01*
X109142857Y-81900000D01*
X109266666Y-82023809D01*
X109390476Y-82271428D01*
X109390476Y-82519047D01*
X109266666Y-82766666D01*
X109142857Y-82890476D01*
X108895238Y-83014285D01*
X108028571Y-83014285D01*
X110628571Y-84376190D02*
X110628571Y-82642857D01*
X110628571Y-81776190D02*
X110504761Y-81900000D01*
X110628571Y-82023809D01*
X110752380Y-81900000D01*
X110628571Y-81776190D01*
X110628571Y-82023809D01*
X111495238Y-82642857D02*
X112485714Y-82642857D01*
X111866666Y-81776190D02*
X111866666Y-84004761D01*
X111990476Y-84252380D01*
X112238095Y-84376190D01*
X112485714Y-84376190D01*
X115209523Y-81652380D02*
X112980952Y-84995238D01*
X115952380Y-84252380D02*
X116200000Y-84376190D01*
X116695238Y-84376190D01*
X116942857Y-84252380D01*
X117066666Y-84004761D01*
X117066666Y-83880952D01*
X116942857Y-83633333D01*
X116695238Y-83509523D01*
X116323809Y-83509523D01*
X116076190Y-83385714D01*
X115952380Y-83138095D01*
X115952380Y-83014285D01*
X116076190Y-82766666D01*
X116323809Y-82642857D01*
X116695238Y-82642857D01*
X116942857Y-82766666D01*
D11*
X103415714Y-134542857D02*
X103415714Y-133342857D01*
X103930000Y-134542857D02*
X103930000Y-133914285D01*
X103872857Y-133800000D01*
X103758571Y-133742857D01*
X103587142Y-133742857D01*
X103472857Y-133800000D01*
X103415714Y-133857142D01*
X104330000Y-133742857D02*
X104787142Y-133742857D01*
X104501428Y-133342857D02*
X104501428Y-134371428D01*
X104558571Y-134485714D01*
X104672857Y-134542857D01*
X104787142Y-134542857D01*
X105015714Y-133742857D02*
X105472857Y-133742857D01*
X105187142Y-133342857D02*
X105187142Y-134371428D01*
X105244285Y-134485714D01*
X105358571Y-134542857D01*
X105472857Y-134542857D01*
X105872857Y-133742857D02*
X105872857Y-134942857D01*
X105872857Y-133800000D02*
X105987142Y-133742857D01*
X106215714Y-133742857D01*
X106330000Y-133800000D01*
X106387142Y-133857142D01*
X106444285Y-133971428D01*
X106444285Y-134314285D01*
X106387142Y-134428571D01*
X106330000Y-134485714D01*
X106215714Y-134542857D01*
X105987142Y-134542857D01*
X105872857Y-134485714D01*
X106901428Y-134485714D02*
X107015714Y-134542857D01*
X107244285Y-134542857D01*
X107358571Y-134485714D01*
X107415714Y-134371428D01*
X107415714Y-134314285D01*
X107358571Y-134200000D01*
X107244285Y-134142857D01*
X107072857Y-134142857D01*
X106958571Y-134085714D01*
X106901428Y-133971428D01*
X106901428Y-133914285D01*
X106958571Y-133800000D01*
X107072857Y-133742857D01*
X107244285Y-133742857D01*
X107358571Y-133800000D01*
X107930000Y-134428571D02*
X107987142Y-134485714D01*
X107930000Y-134542857D01*
X107872857Y-134485714D01*
X107930000Y-134428571D01*
X107930000Y-134542857D01*
X107930000Y-133800000D02*
X107987142Y-133857142D01*
X107930000Y-133914285D01*
X107872857Y-133857142D01*
X107930000Y-133800000D01*
X107930000Y-133914285D01*
X109358571Y-133285714D02*
X108330000Y-134828571D01*
X110615714Y-133285714D02*
X109587142Y-134828571D01*
X111530000Y-133742857D02*
X111530000Y-134714285D01*
X111472857Y-134828571D01*
X111415714Y-134885714D01*
X111301428Y-134942857D01*
X111130000Y-134942857D01*
X111015714Y-134885714D01*
X111530000Y-134485714D02*
X111415714Y-134542857D01*
X111187142Y-134542857D01*
X111072857Y-134485714D01*
X111015714Y-134428571D01*
X110958571Y-134314285D01*
X110958571Y-133971428D01*
X111015714Y-133857142D01*
X111072857Y-133800000D01*
X111187142Y-133742857D01*
X111415714Y-133742857D01*
X111530000Y-133800000D01*
X112101428Y-134542857D02*
X112101428Y-133742857D01*
X112101428Y-133342857D02*
X112044285Y-133400000D01*
X112101428Y-133457142D01*
X112158571Y-133400000D01*
X112101428Y-133342857D01*
X112101428Y-133457142D01*
X112501428Y-133742857D02*
X112958571Y-133742857D01*
X112672857Y-133342857D02*
X112672857Y-134371428D01*
X112730000Y-134485714D01*
X112844285Y-134542857D01*
X112958571Y-134542857D01*
X113358571Y-134542857D02*
X113358571Y-133342857D01*
X113872857Y-134542857D02*
X113872857Y-133914285D01*
X113815714Y-133800000D01*
X113701428Y-133742857D01*
X113530000Y-133742857D01*
X113415714Y-133800000D01*
X113358571Y-133857142D01*
X114958571Y-133742857D02*
X114958571Y-134542857D01*
X114444285Y-133742857D02*
X114444285Y-134371428D01*
X114501428Y-134485714D01*
X114615714Y-134542857D01*
X114787142Y-134542857D01*
X114901428Y-134485714D01*
X114958571Y-134428571D01*
X115530000Y-134542857D02*
X115530000Y-133342857D01*
X115530000Y-133800000D02*
X115644285Y-133742857D01*
X115872857Y-133742857D01*
X115987142Y-133800000D01*
X116044285Y-133857142D01*
X116101428Y-133971428D01*
X116101428Y-134314285D01*
X116044285Y-134428571D01*
X115987142Y-134485714D01*
X115872857Y-134542857D01*
X115644285Y-134542857D01*
X115530000Y-134485714D01*
X116615714Y-134428571D02*
X116672857Y-134485714D01*
X116615714Y-134542857D01*
X116558571Y-134485714D01*
X116615714Y-134428571D01*
X116615714Y-134542857D01*
X117701428Y-134485714D02*
X117587142Y-134542857D01*
X117358571Y-134542857D01*
X117244285Y-134485714D01*
X117187142Y-134428571D01*
X117130000Y-134314285D01*
X117130000Y-133971428D01*
X117187142Y-133857142D01*
X117244285Y-133800000D01*
X117358571Y-133742857D01*
X117587142Y-133742857D01*
X117701428Y-133800000D01*
X118387142Y-134542857D02*
X118272857Y-134485714D01*
X118215714Y-134428571D01*
X118158571Y-134314285D01*
X118158571Y-133971428D01*
X118215714Y-133857142D01*
X118272857Y-133800000D01*
X118387142Y-133742857D01*
X118558571Y-133742857D01*
X118672857Y-133800000D01*
X118730000Y-133857142D01*
X118787142Y-133971428D01*
X118787142Y-134314285D01*
X118730000Y-134428571D01*
X118672857Y-134485714D01*
X118558571Y-134542857D01*
X118387142Y-134542857D01*
X119301428Y-134542857D02*
X119301428Y-133742857D01*
X119301428Y-133857142D02*
X119358571Y-133800000D01*
X119472857Y-133742857D01*
X119644285Y-133742857D01*
X119758571Y-133800000D01*
X119815714Y-133914285D01*
X119815714Y-134542857D01*
X119815714Y-133914285D02*
X119872857Y-133800000D01*
X119987142Y-133742857D01*
X120158571Y-133742857D01*
X120272857Y-133800000D01*
X120330000Y-133914285D01*
X120330000Y-134542857D01*
X121758571Y-133285714D02*
X120730000Y-134828571D01*
X122158571Y-134542857D02*
X122158571Y-133342857D01*
X122272857Y-134085714D02*
X122615714Y-134542857D01*
X122615714Y-133742857D02*
X122158571Y-134200000D01*
X123130000Y-134542857D02*
X123130000Y-133742857D01*
X123130000Y-133342857D02*
X123072857Y-133400000D01*
X123130000Y-133457142D01*
X123187142Y-133400000D01*
X123130000Y-133342857D01*
X123130000Y-133457142D01*
X124215714Y-133742857D02*
X124215714Y-134542857D01*
X123701428Y-133742857D02*
X123701428Y-134371428D01*
X123758571Y-134485714D01*
X123872857Y-134542857D01*
X124044285Y-134542857D01*
X124158571Y-134485714D01*
X124215714Y-134428571D01*
X125644285Y-133285714D02*
X124615714Y-134828571D01*
X126044285Y-133742857D02*
X126044285Y-134542857D01*
X126044285Y-133857142D02*
X126101428Y-133800000D01*
X126215714Y-133742857D01*
X126387142Y-133742857D01*
X126501428Y-133800000D01*
X126558571Y-133914285D01*
X126558571Y-134542857D01*
X127587142Y-134485714D02*
X127472857Y-134542857D01*
X127244285Y-134542857D01*
X127130000Y-134485714D01*
X127072857Y-134371428D01*
X127072857Y-133914285D01*
X127130000Y-133800000D01*
X127244285Y-133742857D01*
X127472857Y-133742857D01*
X127587142Y-133800000D01*
X127644285Y-133914285D01*
X127644285Y-134028571D01*
X127072857Y-134142857D01*
X127987142Y-133742857D02*
X128444285Y-133742857D01*
X128158571Y-133342857D02*
X128158571Y-134371428D01*
X128215714Y-134485714D01*
X128330000Y-134542857D01*
X128444285Y-134542857D01*
X128844285Y-134542857D02*
X128844285Y-133742857D01*
X128844285Y-133857142D02*
X128901428Y-133800000D01*
X129015714Y-133742857D01*
X129187142Y-133742857D01*
X129301428Y-133800000D01*
X129358571Y-133914285D01*
X129358571Y-134542857D01*
X129358571Y-133914285D02*
X129415714Y-133800000D01*
X129530000Y-133742857D01*
X129701428Y-133742857D01*
X129815714Y-133800000D01*
X129872857Y-133914285D01*
X129872857Y-134542857D01*
X130901428Y-134485714D02*
X130787142Y-134542857D01*
X130558571Y-134542857D01*
X130444285Y-134485714D01*
X130387142Y-134371428D01*
X130387142Y-133914285D01*
X130444285Y-133800000D01*
X130558571Y-133742857D01*
X130787142Y-133742857D01*
X130901428Y-133800000D01*
X130958571Y-133914285D01*
X130958571Y-134028571D01*
X130387142Y-134142857D01*
X131301428Y-133742857D02*
X131758571Y-133742857D01*
X131472857Y-133342857D02*
X131472857Y-134371428D01*
X131530000Y-134485714D01*
X131644285Y-134542857D01*
X131758571Y-134542857D01*
X132615714Y-134485714D02*
X132501428Y-134542857D01*
X132272857Y-134542857D01*
X132158571Y-134485714D01*
X132101428Y-134371428D01*
X132101428Y-133914285D01*
X132158571Y-133800000D01*
X132272857Y-133742857D01*
X132501428Y-133742857D01*
X132615714Y-133800000D01*
X132672857Y-133914285D01*
X132672857Y-134028571D01*
X132101428Y-134142857D01*
X133187142Y-134542857D02*
X133187142Y-133742857D01*
X133187142Y-133971428D02*
X133244285Y-133857142D01*
X133301428Y-133800000D01*
X133415714Y-133742857D01*
X133530000Y-133742857D01*
D12*
X103000000Y-127000000D02*
X107000000Y-127000000D01*
D13*
X107000000Y-127000000D02*
X111000000Y-127000000D01*
D14*
X115857142Y-125357142D02*
X116142857Y-125357142D01*
X116428571Y-125500000D01*
X116571428Y-125642857D01*
X116714285Y-125928571D01*
X116857142Y-126500000D01*
X116857142Y-127214285D01*
X116714285Y-127785714D01*
X116571428Y-128071428D01*
X116428571Y-128214285D01*
X116142857Y-128357142D01*
X115857142Y-128357142D01*
X115571428Y-128214285D01*
X115428571Y-128071428D01*
X115285714Y-127785714D01*
X115142857Y-127214285D01*
X115142857Y-126500000D01*
X115285714Y-125928571D01*
X115428571Y-125642857D01*
X115571428Y-125500000D01*
X115857142Y-125357142D01*
D12*
X103102610Y-123734893D02*
X107094717Y-123986055D01*
X103410036Y-120482672D02*
X109362724Y-121234671D01*
X103921063Y-117256172D02*
X107850212Y-118005697D01*
X104633676Y-114068126D02*
X110445175Y-115560265D01*
X105545061Y-110931116D02*
X109349287Y-112167184D01*
D13*
X109349287Y-112167184D02*
X113153513Y-113403252D01*
D14*
X117337367Y-116305479D02*
X115623081Y-116305479D01*
X116480224Y-116305479D02*
X116480224Y-113305479D01*
X116194510Y-113734051D01*
X115908796Y-114019765D01*
X115623081Y-114162622D01*
X119194510Y-113305479D02*
X119480224Y-113305479D01*
X119765938Y-113448337D01*
X119908796Y-113591194D01*
X120051653Y-113876908D01*
X120194510Y-114448337D01*
X120194510Y-115162622D01*
X120051653Y-115734051D01*
X119908796Y-116019765D01*
X119765938Y-116162622D01*
X119480224Y-116305479D01*
X119194510Y-116305479D01*
X118908796Y-116162622D01*
X118765938Y-116019765D01*
X118623081Y-115734051D01*
X118480224Y-115162622D01*
X118480224Y-114448337D01*
X118623081Y-113876908D01*
X118765938Y-113591194D01*
X118908796Y-113448337D01*
X119194510Y-113305479D01*
D12*
X106651623Y-107857523D02*
X110370729Y-109330021D01*
X107948993Y-104859477D02*
X113377956Y-107414153D01*
X109432053Y-101948809D02*
X112937279Y-103875824D01*
X111094948Y-99137007D02*
X116160915Y-102351967D01*
X112931116Y-96435167D02*
X116167184Y-98786308D01*
D13*
X116167184Y-98786308D02*
X119403252Y-101137449D01*
D14*
X121162622Y-102719232D02*
X121305479Y-102576375D01*
X121591194Y-102433517D01*
X122305479Y-102433517D01*
X122591194Y-102576375D01*
X122734051Y-102719232D01*
X122876908Y-103004946D01*
X122876908Y-103290660D01*
X122734051Y-103719232D01*
X121019765Y-105433517D01*
X122876908Y-105433517D01*
X124734051Y-102433517D02*
X125019765Y-102433517D01*
X125305479Y-102576375D01*
X125448337Y-102719232D01*
X125591194Y-103004946D01*
X125734051Y-103576375D01*
X125734051Y-104290660D01*
X125591194Y-104862089D01*
X125448337Y-105147803D01*
X125305479Y-105290660D01*
X125019765Y-105433517D01*
X124734051Y-105433517D01*
X124448337Y-105290660D01*
X124305479Y-105147803D01*
X124162622Y-104862089D01*
X124019765Y-104290660D01*
X124019765Y-103576375D01*
X124162622Y-103004946D01*
X124305479Y-102719232D01*
X124448337Y-102576375D01*
X124734051Y-102433517D01*
D12*
X114933311Y-93853953D02*
X118015364Y-96403648D01*
X117093631Y-91403550D02*
X121467443Y-95510833D01*
X119403550Y-89093631D02*
X122141739Y-92009506D01*
X121853953Y-86933311D02*
X125678496Y-91556391D01*
X124435167Y-84931116D02*
X126786308Y-88167184D01*
D13*
X126786308Y-88167184D02*
X129137449Y-91403252D01*
D14*
X129647803Y-93805479D02*
X131504946Y-93805479D01*
X130504946Y-94948337D01*
X130933517Y-94948337D01*
X131219232Y-95091194D01*
X131362089Y-95234051D01*
X131504946Y-95519765D01*
X131504946Y-96234051D01*
X131362089Y-96519765D01*
X131219232Y-96662622D01*
X130933517Y-96805479D01*
X130076375Y-96805479D01*
X129790660Y-96662622D01*
X129647803Y-96519765D01*
X133362089Y-93805479D02*
X133647803Y-93805479D01*
X133933517Y-93948337D01*
X134076375Y-94091194D01*
X134219232Y-94376908D01*
X134362089Y-94948337D01*
X134362089Y-95662622D01*
X134219232Y-96234051D01*
X134076375Y-96519765D01*
X133933517Y-96662622D01*
X133647803Y-96805479D01*
X133362089Y-96805479D01*
X133076375Y-96662622D01*
X132933517Y-96519765D01*
X132790660Y-96234051D01*
X132647803Y-95662622D01*
X132647803Y-94948337D01*
X132790660Y-94376908D01*
X132933517Y-94091194D01*
X133076375Y-93948337D01*
X133362089Y-93805479D01*
D12*
X127137007Y-83094948D02*
X129280314Y-86472260D01*
X129948809Y-81432053D02*
X132839331Y-86689893D01*
X132859477Y-79948993D02*
X134562594Y-83568301D01*
X135857523Y-78651623D02*
X138066271Y-84230282D01*
X138931116Y-77545061D02*
X140167184Y-81349287D01*
D13*
X140167184Y-81349287D02*
X141403252Y-85153513D01*
D14*
X142091194Y-89265938D02*
X142091194Y-91265938D01*
X141376908Y-88123081D02*
X140662622Y-90265938D01*
X142519765Y-90265938D01*
X144234051Y-88265938D02*
X144519765Y-88265938D01*
X144805479Y-88408796D01*
X144948337Y-88551653D01*
X145091194Y-88837367D01*
X145234051Y-89408796D01*
X145234051Y-90123081D01*
X145091194Y-90694510D01*
X144948337Y-90980224D01*
X144805479Y-91123081D01*
X144519765Y-91265938D01*
X144234051Y-91265938D01*
X143948337Y-91123081D01*
X143805479Y-90980224D01*
X143662622Y-90694510D01*
X143519765Y-90123081D01*
X143519765Y-89408796D01*
X143662622Y-88837367D01*
X143805479Y-88551653D01*
X143948337Y-88408796D01*
X144234051Y-88265938D01*
D12*
X142068126Y-76633676D02*
X143062885Y-80508008D01*
X145256172Y-75921063D02*
X146380460Y-81814786D01*
X148482672Y-75410036D02*
X148984005Y-79378494D01*
X151734893Y-75102610D02*
X152111636Y-81090770D01*
X155000000Y-75000000D02*
X155000000Y-79000000D01*
D13*
X155000000Y-79000000D02*
X155000000Y-83000000D01*
D14*
X154285714Y-86357142D02*
X152857142Y-86357142D01*
X152714285Y-87785714D01*
X152857142Y-87642857D01*
X153142857Y-87500000D01*
X153857142Y-87500000D01*
X154142857Y-87642857D01*
X154285714Y-87785714D01*
X154428571Y-88071428D01*
X154428571Y-88785714D01*
X154285714Y-89071428D01*
X154142857Y-89214285D01*
X153857142Y-89357142D01*
X153142857Y-89357142D01*
X152857142Y-89214285D01*
X152714285Y-89071428D01*
X156285714Y-86357142D02*
X156571428Y-86357142D01*
X156857142Y-86500000D01*
X157000000Y-86642857D01*
X157142857Y-86928571D01*
X157285714Y-87500000D01*
X157285714Y-88214285D01*
X157142857Y-88785714D01*
X157000000Y-89071428D01*
X156857142Y-89214285D01*
X156571428Y-89357142D01*
X156285714Y-89357142D01*
X156000000Y-89214285D01*
X155857142Y-89071428D01*
X155714285Y-88785714D01*
X155571428Y-88214285D01*
X155571428Y-87500000D01*
X155714285Y-86928571D01*
X155857142Y-86642857D01*
X156000000Y-86500000D01*
X156285714Y-86357142D01*
M02*
