G04 #@! TF.GenerationSoftware,KiCad,Pcbnew,(5.1.6)-1*
G04 #@! TF.CreationDate,2020-09-05T20:30:55+02:00*
G04 #@! TF.ProjectId,netmeter_panel_uplink,6e65746d-6574-4657-925f-70616e656c5f,rev?*
G04 #@! TF.SameCoordinates,Original*
G04 #@! TF.FileFunction,Legend,Top*
G04 #@! TF.FilePolarity,Positive*
%FSLAX46Y46*%
G04 Gerber Fmt 4.6, Leading zero omitted, Abs format (unit mm)*
G04 Created by KiCad (PCBNEW (5.1.6)-1) date 2020-09-05 20:30:55*
%MOMM*%
%LPD*%
G01*
G04 APERTURE LIST*
%ADD10C,0.500000*%
%ADD11C,0.200000*%
%ADD12C,0.250000*%
%ADD13C,0.750000*%
%ADD14C,0.400000*%
G04 APERTURE END LIST*
D10*
X105552380Y-77376190D02*
X105552380Y-79480952D01*
X105676190Y-79728571D01*
X105800000Y-79852380D01*
X106047619Y-79976190D01*
X106542857Y-79976190D01*
X106790476Y-79852380D01*
X106914285Y-79728571D01*
X107038095Y-79480952D01*
X107038095Y-77376190D01*
X108276190Y-78242857D02*
X108276190Y-80842857D01*
X108276190Y-78366666D02*
X108523809Y-78242857D01*
X109019047Y-78242857D01*
X109266666Y-78366666D01*
X109390476Y-78490476D01*
X109514285Y-78738095D01*
X109514285Y-79480952D01*
X109390476Y-79728571D01*
X109266666Y-79852380D01*
X109019047Y-79976190D01*
X108523809Y-79976190D01*
X108276190Y-79852380D01*
X111000000Y-79976190D02*
X110752380Y-79852380D01*
X110628571Y-79604761D01*
X110628571Y-77376190D01*
X111990476Y-79976190D02*
X111990476Y-78242857D01*
X111990476Y-77376190D02*
X111866666Y-77500000D01*
X111990476Y-77623809D01*
X112114285Y-77500000D01*
X111990476Y-77376190D01*
X111990476Y-77623809D01*
X113228571Y-78242857D02*
X113228571Y-79976190D01*
X113228571Y-78490476D02*
X113352380Y-78366666D01*
X113600000Y-78242857D01*
X113971428Y-78242857D01*
X114219047Y-78366666D01*
X114342857Y-78614285D01*
X114342857Y-79976190D01*
X115580952Y-79976190D02*
X115580952Y-77376190D01*
X115828571Y-78985714D02*
X116571428Y-79976190D01*
X116571428Y-78242857D02*
X115580952Y-79233333D01*
X105057142Y-84376190D02*
X105057142Y-81776190D01*
X105923809Y-83633333D01*
X106790476Y-81776190D01*
X106790476Y-84376190D01*
X108895238Y-83014285D02*
X109266666Y-83138095D01*
X109390476Y-83261904D01*
X109514285Y-83509523D01*
X109514285Y-83880952D01*
X109390476Y-84128571D01*
X109266666Y-84252380D01*
X109019047Y-84376190D01*
X108028571Y-84376190D01*
X108028571Y-81776190D01*
X108895238Y-81776190D01*
X109142857Y-81900000D01*
X109266666Y-82023809D01*
X109390476Y-82271428D01*
X109390476Y-82519047D01*
X109266666Y-82766666D01*
X109142857Y-82890476D01*
X108895238Y-83014285D01*
X108028571Y-83014285D01*
X110628571Y-84376190D02*
X110628571Y-82642857D01*
X110628571Y-81776190D02*
X110504761Y-81900000D01*
X110628571Y-82023809D01*
X110752380Y-81900000D01*
X110628571Y-81776190D01*
X110628571Y-82023809D01*
X111495238Y-82642857D02*
X112485714Y-82642857D01*
X111866666Y-81776190D02*
X111866666Y-84004761D01*
X111990476Y-84252380D01*
X112238095Y-84376190D01*
X112485714Y-84376190D01*
X115209523Y-81652380D02*
X112980952Y-84995238D01*
X115952380Y-84252380D02*
X116200000Y-84376190D01*
X116695238Y-84376190D01*
X116942857Y-84252380D01*
X117066666Y-84004761D01*
X117066666Y-83880952D01*
X116942857Y-83633333D01*
X116695238Y-83509523D01*
X116323809Y-83509523D01*
X116076190Y-83385714D01*
X115952380Y-83138095D01*
X115952380Y-83014285D01*
X116076190Y-82766666D01*
X116323809Y-82642857D01*
X116695238Y-82642857D01*
X116942857Y-82766666D01*
D11*
X103415714Y-134542857D02*
X103415714Y-133342857D01*
X103930000Y-134542857D02*
X103930000Y-133914285D01*
X103872857Y-133800000D01*
X103758571Y-133742857D01*
X103587142Y-133742857D01*
X103472857Y-133800000D01*
X103415714Y-133857142D01*
X104330000Y-133742857D02*
X104787142Y-133742857D01*
X104501428Y-133342857D02*
X104501428Y-134371428D01*
X104558571Y-134485714D01*
X104672857Y-134542857D01*
X104787142Y-134542857D01*
X105015714Y-133742857D02*
X105472857Y-133742857D01*
X105187142Y-133342857D02*
X105187142Y-134371428D01*
X105244285Y-134485714D01*
X105358571Y-134542857D01*
X105472857Y-134542857D01*
X105872857Y-133742857D02*
X105872857Y-134942857D01*
X105872857Y-133800000D02*
X105987142Y-133742857D01*
X106215714Y-133742857D01*
X106330000Y-133800000D01*
X106387142Y-133857142D01*
X106444285Y-133971428D01*
X106444285Y-134314285D01*
X106387142Y-134428571D01*
X106330000Y-134485714D01*
X106215714Y-134542857D01*
X105987142Y-134542857D01*
X105872857Y-134485714D01*
X106901428Y-134485714D02*
X107015714Y-134542857D01*
X107244285Y-134542857D01*
X107358571Y-134485714D01*
X107415714Y-134371428D01*
X107415714Y-134314285D01*
X107358571Y-134200000D01*
X107244285Y-134142857D01*
X107072857Y-134142857D01*
X106958571Y-134085714D01*
X106901428Y-133971428D01*
X106901428Y-133914285D01*
X106958571Y-133800000D01*
X107072857Y-133742857D01*
X107244285Y-133742857D01*
X107358571Y-133800000D01*
X107930000Y-134428571D02*
X107987142Y-134485714D01*
X107930000Y-134542857D01*
X107872857Y-134485714D01*
X107930000Y-134428571D01*
X107930000Y-134542857D01*
X107930000Y-133800000D02*
X107987142Y-133857142D01*
X107930000Y-133914285D01*
X107872857Y-133857142D01*
X107930000Y-133800000D01*
X107930000Y-133914285D01*
X109358571Y-133285714D02*
X108330000Y-134828571D01*
X110615714Y-133285714D02*
X109587142Y-134828571D01*
X111530000Y-133742857D02*
X111530000Y-134714285D01*
X111472857Y-134828571D01*
X111415714Y-134885714D01*
X111301428Y-134942857D01*
X111130000Y-134942857D01*
X111015714Y-134885714D01*
X111530000Y-134485714D02*
X111415714Y-134542857D01*
X111187142Y-134542857D01*
X111072857Y-134485714D01*
X111015714Y-134428571D01*
X110958571Y-134314285D01*
X110958571Y-133971428D01*
X111015714Y-133857142D01*
X111072857Y-133800000D01*
X111187142Y-133742857D01*
X111415714Y-133742857D01*
X111530000Y-133800000D01*
X112101428Y-134542857D02*
X112101428Y-133742857D01*
X112101428Y-133342857D02*
X112044285Y-133400000D01*
X112101428Y-133457142D01*
X112158571Y-133400000D01*
X112101428Y-133342857D01*
X112101428Y-133457142D01*
X112501428Y-133742857D02*
X112958571Y-133742857D01*
X112672857Y-133342857D02*
X112672857Y-134371428D01*
X112730000Y-134485714D01*
X112844285Y-134542857D01*
X112958571Y-134542857D01*
X113358571Y-134542857D02*
X113358571Y-133342857D01*
X113872857Y-134542857D02*
X113872857Y-133914285D01*
X113815714Y-133800000D01*
X113701428Y-133742857D01*
X113530000Y-133742857D01*
X113415714Y-133800000D01*
X113358571Y-133857142D01*
X114958571Y-133742857D02*
X114958571Y-134542857D01*
X114444285Y-133742857D02*
X114444285Y-134371428D01*
X114501428Y-134485714D01*
X114615714Y-134542857D01*
X114787142Y-134542857D01*
X114901428Y-134485714D01*
X114958571Y-134428571D01*
X115530000Y-134542857D02*
X115530000Y-133342857D01*
X115530000Y-133800000D02*
X115644285Y-133742857D01*
X115872857Y-133742857D01*
X115987142Y-133800000D01*
X116044285Y-133857142D01*
X116101428Y-133971428D01*
X116101428Y-134314285D01*
X116044285Y-134428571D01*
X115987142Y-134485714D01*
X115872857Y-134542857D01*
X115644285Y-134542857D01*
X115530000Y-134485714D01*
X116615714Y-134428571D02*
X116672857Y-134485714D01*
X116615714Y-134542857D01*
X116558571Y-134485714D01*
X116615714Y-134428571D01*
X116615714Y-134542857D01*
X117701428Y-134485714D02*
X117587142Y-134542857D01*
X117358571Y-134542857D01*
X117244285Y-134485714D01*
X117187142Y-134428571D01*
X117130000Y-134314285D01*
X117130000Y-133971428D01*
X117187142Y-133857142D01*
X117244285Y-133800000D01*
X117358571Y-133742857D01*
X117587142Y-133742857D01*
X117701428Y-133800000D01*
X118387142Y-134542857D02*
X118272857Y-134485714D01*
X118215714Y-134428571D01*
X118158571Y-134314285D01*
X118158571Y-133971428D01*
X118215714Y-133857142D01*
X118272857Y-133800000D01*
X118387142Y-133742857D01*
X118558571Y-133742857D01*
X118672857Y-133800000D01*
X118730000Y-133857142D01*
X118787142Y-133971428D01*
X118787142Y-134314285D01*
X118730000Y-134428571D01*
X118672857Y-134485714D01*
X118558571Y-134542857D01*
X118387142Y-134542857D01*
X119301428Y-134542857D02*
X119301428Y-133742857D01*
X119301428Y-133857142D02*
X119358571Y-133800000D01*
X119472857Y-133742857D01*
X119644285Y-133742857D01*
X119758571Y-133800000D01*
X119815714Y-133914285D01*
X119815714Y-134542857D01*
X119815714Y-133914285D02*
X119872857Y-133800000D01*
X119987142Y-133742857D01*
X120158571Y-133742857D01*
X120272857Y-133800000D01*
X120330000Y-133914285D01*
X120330000Y-134542857D01*
X121758571Y-133285714D02*
X120730000Y-134828571D01*
X122158571Y-134542857D02*
X122158571Y-133342857D01*
X122272857Y-134085714D02*
X122615714Y-134542857D01*
X122615714Y-133742857D02*
X122158571Y-134200000D01*
X123130000Y-134542857D02*
X123130000Y-133742857D01*
X123130000Y-133342857D02*
X123072857Y-133400000D01*
X123130000Y-133457142D01*
X123187142Y-133400000D01*
X123130000Y-133342857D01*
X123130000Y-133457142D01*
X124215714Y-133742857D02*
X124215714Y-134542857D01*
X123701428Y-133742857D02*
X123701428Y-134371428D01*
X123758571Y-134485714D01*
X123872857Y-134542857D01*
X124044285Y-134542857D01*
X124158571Y-134485714D01*
X124215714Y-134428571D01*
X125644285Y-133285714D02*
X124615714Y-134828571D01*
X126044285Y-133742857D02*
X126044285Y-134542857D01*
X126044285Y-133857142D02*
X126101428Y-133800000D01*
X126215714Y-133742857D01*
X126387142Y-133742857D01*
X126501428Y-133800000D01*
X126558571Y-133914285D01*
X126558571Y-134542857D01*
X127587142Y-134485714D02*
X127472857Y-134542857D01*
X127244285Y-134542857D01*
X127130000Y-134485714D01*
X127072857Y-134371428D01*
X127072857Y-133914285D01*
X127130000Y-133800000D01*
X127244285Y-133742857D01*
X127472857Y-133742857D01*
X127587142Y-133800000D01*
X127644285Y-133914285D01*
X127644285Y-134028571D01*
X127072857Y-134142857D01*
X127987142Y-133742857D02*
X128444285Y-133742857D01*
X128158571Y-133342857D02*
X128158571Y-134371428D01*
X128215714Y-134485714D01*
X128330000Y-134542857D01*
X128444285Y-134542857D01*
X128844285Y-134542857D02*
X128844285Y-133742857D01*
X128844285Y-133857142D02*
X128901428Y-133800000D01*
X129015714Y-133742857D01*
X129187142Y-133742857D01*
X129301428Y-133800000D01*
X129358571Y-133914285D01*
X129358571Y-134542857D01*
X129358571Y-133914285D02*
X129415714Y-133800000D01*
X129530000Y-133742857D01*
X129701428Y-133742857D01*
X129815714Y-133800000D01*
X129872857Y-133914285D01*
X129872857Y-134542857D01*
X130901428Y-134485714D02*
X130787142Y-134542857D01*
X130558571Y-134542857D01*
X130444285Y-134485714D01*
X130387142Y-134371428D01*
X130387142Y-133914285D01*
X130444285Y-133800000D01*
X130558571Y-133742857D01*
X130787142Y-133742857D01*
X130901428Y-133800000D01*
X130958571Y-133914285D01*
X130958571Y-134028571D01*
X130387142Y-134142857D01*
X131301428Y-133742857D02*
X131758571Y-133742857D01*
X131472857Y-133342857D02*
X131472857Y-134371428D01*
X131530000Y-134485714D01*
X131644285Y-134542857D01*
X131758571Y-134542857D01*
X132615714Y-134485714D02*
X132501428Y-134542857D01*
X132272857Y-134542857D01*
X132158571Y-134485714D01*
X132101428Y-134371428D01*
X132101428Y-133914285D01*
X132158571Y-133800000D01*
X132272857Y-133742857D01*
X132501428Y-133742857D01*
X132615714Y-133800000D01*
X132672857Y-133914285D01*
X132672857Y-134028571D01*
X132101428Y-134142857D01*
X133187142Y-134542857D02*
X133187142Y-133742857D01*
X133187142Y-133971428D02*
X133244285Y-133857142D01*
X133301428Y-133800000D01*
X133415714Y-133742857D01*
X133530000Y-133742857D01*
D12*
X103000000Y-127000000D02*
X107000000Y-127000000D01*
D13*
X107000000Y-127000000D02*
X111000000Y-127000000D01*
D14*
X115857142Y-125357142D02*
X116142857Y-125357142D01*
X116428571Y-125500000D01*
X116571428Y-125642857D01*
X116714285Y-125928571D01*
X116857142Y-126500000D01*
X116857142Y-127214285D01*
X116714285Y-127785714D01*
X116571428Y-128071428D01*
X116428571Y-128214285D01*
X116142857Y-128357142D01*
X115857142Y-128357142D01*
X115571428Y-128214285D01*
X115428571Y-128071428D01*
X115285714Y-127785714D01*
X115142857Y-127214285D01*
X115142857Y-126500000D01*
X115285714Y-125928571D01*
X115428571Y-125642857D01*
X115571428Y-125500000D01*
X115857142Y-125357142D01*
D12*
X103102610Y-123734893D02*
X107094717Y-123986055D01*
X103410036Y-120482672D02*
X109362724Y-121234671D01*
X103921063Y-117256172D02*
X107850212Y-118005697D01*
X104633676Y-114068126D02*
X110445175Y-115560265D01*
X105545061Y-110931116D02*
X109349287Y-112167184D01*
D13*
X109349287Y-112167184D02*
X113153513Y-113403252D01*
D14*
X118765938Y-116305479D02*
X117051653Y-116305479D01*
X117908796Y-116305479D02*
X117908796Y-113305479D01*
X117623081Y-113734051D01*
X117337367Y-114019765D01*
X117051653Y-114162622D01*
D12*
X106651623Y-107857523D02*
X110370729Y-109330021D01*
X107948993Y-104859477D02*
X113377956Y-107414153D01*
X109432053Y-101948809D02*
X112937279Y-103875824D01*
X111094948Y-99137007D02*
X116160915Y-102351967D01*
X112931116Y-96435167D02*
X116167184Y-98786308D01*
D13*
X116167184Y-98786308D02*
X119403252Y-101137449D01*
D14*
X122591194Y-102719232D02*
X122734051Y-102576375D01*
X123019765Y-102433517D01*
X123734051Y-102433517D01*
X124019765Y-102576375D01*
X124162622Y-102719232D01*
X124305479Y-103004946D01*
X124305479Y-103290660D01*
X124162622Y-103719232D01*
X122448337Y-105433517D01*
X124305479Y-105433517D01*
D12*
X114933311Y-93853953D02*
X118015364Y-96403648D01*
X117093631Y-91403550D02*
X121467443Y-95510833D01*
X119403550Y-89093631D02*
X122141739Y-92009506D01*
X121853953Y-86933311D02*
X125678496Y-91556391D01*
X124435167Y-84931116D02*
X126786308Y-88167184D01*
D13*
X126786308Y-88167184D02*
X129137449Y-91403252D01*
D14*
X131076375Y-93805479D02*
X132933517Y-93805479D01*
X131933517Y-94948337D01*
X132362089Y-94948337D01*
X132647803Y-95091194D01*
X132790660Y-95234051D01*
X132933517Y-95519765D01*
X132933517Y-96234051D01*
X132790660Y-96519765D01*
X132647803Y-96662622D01*
X132362089Y-96805479D01*
X131504946Y-96805479D01*
X131219232Y-96662622D01*
X131076375Y-96519765D01*
D12*
X127137007Y-83094948D02*
X129280314Y-86472260D01*
X129948809Y-81432053D02*
X132839331Y-86689893D01*
X132859477Y-79948993D02*
X134562594Y-83568301D01*
X135857523Y-78651623D02*
X138066271Y-84230282D01*
X138931116Y-77545061D02*
X140167184Y-81349287D01*
D13*
X140167184Y-81349287D02*
X141403252Y-85153513D01*
D14*
X143519765Y-89265938D02*
X143519765Y-91265938D01*
X142805479Y-88123081D02*
X142091194Y-90265938D01*
X143948337Y-90265938D01*
D12*
X142068126Y-76633676D02*
X143062885Y-80508008D01*
X145256172Y-75921063D02*
X146380460Y-81814786D01*
X148482672Y-75410036D02*
X148984005Y-79378494D01*
X151734893Y-75102610D02*
X152111636Y-81090770D01*
X155000000Y-75000000D02*
X155000000Y-79000000D01*
D13*
X155000000Y-79000000D02*
X155000000Y-83000000D01*
D14*
X155714285Y-86357142D02*
X154285714Y-86357142D01*
X154142857Y-87785714D01*
X154285714Y-87642857D01*
X154571428Y-87500000D01*
X155285714Y-87500000D01*
X155571428Y-87642857D01*
X155714285Y-87785714D01*
X155857142Y-88071428D01*
X155857142Y-88785714D01*
X155714285Y-89071428D01*
X155571428Y-89214285D01*
X155285714Y-89357142D01*
X154571428Y-89357142D01*
X154285714Y-89214285D01*
X154142857Y-89071428D01*
M02*
