G04 #@! TF.GenerationSoftware,KiCad,Pcbnew,(5.1.6)-1*
G04 #@! TF.CreationDate,2020-09-05T20:44:27+02:00*
G04 #@! TF.ProjectId,netmeter_base,6e65746d-6574-4657-925f-626173652e6b,rev?*
G04 #@! TF.SameCoordinates,Original*
G04 #@! TF.FileFunction,Legend,Top*
G04 #@! TF.FilePolarity,Positive*
%FSLAX46Y46*%
G04 Gerber Fmt 4.6, Leading zero omitted, Abs format (unit mm)*
G04 Created by KiCad (PCBNEW (5.1.6)-1) date 2020-09-05 20:44:27*
%MOMM*%
%LPD*%
G01*
G04 APERTURE LIST*
%ADD10C,0.250000*%
%ADD11C,0.200000*%
%ADD12C,0.300000*%
%ADD13C,0.120000*%
%ADD14C,0.150000*%
G04 APERTURE END LIST*
D10*
X34511904Y-86194642D02*
X35130952Y-85761309D01*
X34511904Y-85451785D02*
X35811904Y-85451785D01*
X35811904Y-85947023D01*
X35750000Y-86070833D01*
X35688095Y-86132738D01*
X35564285Y-86194642D01*
X35378571Y-86194642D01*
X35254761Y-86132738D01*
X35192857Y-86070833D01*
X35130952Y-85947023D01*
X35130952Y-85451785D01*
X35192857Y-86751785D02*
X35192857Y-87185119D01*
X34511904Y-87370833D02*
X34511904Y-86751785D01*
X35811904Y-86751785D01*
X35811904Y-87370833D01*
X35811904Y-87742261D02*
X34511904Y-88175595D01*
X35811904Y-88608928D01*
X34883333Y-89970833D02*
X34883333Y-90589880D01*
X34511904Y-89847023D02*
X35811904Y-90280357D01*
X34511904Y-90713690D01*
X32311904Y-58089880D02*
X33611904Y-58089880D01*
X32311904Y-58647023D02*
X32992857Y-58647023D01*
X33116666Y-58585119D01*
X33178571Y-58461309D01*
X33178571Y-58275595D01*
X33116666Y-58151785D01*
X33054761Y-58089880D01*
X33178571Y-59080357D02*
X33178571Y-59575595D01*
X33611904Y-59266071D02*
X32497619Y-59266071D01*
X32373809Y-59327976D01*
X32311904Y-59451785D01*
X32311904Y-59575595D01*
X33178571Y-59823214D02*
X33178571Y-60318452D01*
X33611904Y-60008928D02*
X32497619Y-60008928D01*
X32373809Y-60070833D01*
X32311904Y-60194642D01*
X32311904Y-60318452D01*
X33178571Y-60751785D02*
X31878571Y-60751785D01*
X33116666Y-60751785D02*
X33178571Y-60875595D01*
X33178571Y-61123214D01*
X33116666Y-61247023D01*
X33054761Y-61308928D01*
X32930952Y-61370833D01*
X32559523Y-61370833D01*
X32435714Y-61308928D01*
X32373809Y-61247023D01*
X32311904Y-61123214D01*
X32311904Y-60875595D01*
X32373809Y-60751785D01*
X32373809Y-61866071D02*
X32311904Y-61989880D01*
X32311904Y-62237499D01*
X32373809Y-62361309D01*
X32497619Y-62423214D01*
X32559523Y-62423214D01*
X32683333Y-62361309D01*
X32745238Y-62237499D01*
X32745238Y-62051785D01*
X32807142Y-61927976D01*
X32930952Y-61866071D01*
X32992857Y-61866071D01*
X33116666Y-61927976D01*
X33178571Y-62051785D01*
X33178571Y-62237499D01*
X33116666Y-62361309D01*
X32435714Y-62980357D02*
X32373809Y-63042261D01*
X32311904Y-62980357D01*
X32373809Y-62918452D01*
X32435714Y-62980357D01*
X32311904Y-62980357D01*
X33116666Y-62980357D02*
X33054761Y-63042261D01*
X32992857Y-62980357D01*
X33054761Y-62918452D01*
X33116666Y-62980357D01*
X32992857Y-62980357D01*
X33673809Y-64527976D02*
X32002380Y-63413690D01*
X33673809Y-65889880D02*
X32002380Y-64775595D01*
X33178571Y-66880357D02*
X32126190Y-66880357D01*
X32002380Y-66818452D01*
X31940476Y-66756547D01*
X31878571Y-66632738D01*
X31878571Y-66447023D01*
X31940476Y-66323214D01*
X32373809Y-66880357D02*
X32311904Y-66756547D01*
X32311904Y-66508928D01*
X32373809Y-66385119D01*
X32435714Y-66323214D01*
X32559523Y-66261309D01*
X32930952Y-66261309D01*
X33054761Y-66323214D01*
X33116666Y-66385119D01*
X33178571Y-66508928D01*
X33178571Y-66756547D01*
X33116666Y-66880357D01*
X32311904Y-67499404D02*
X33178571Y-67499404D01*
X33611904Y-67499404D02*
X33550000Y-67437500D01*
X33488095Y-67499404D01*
X33550000Y-67561309D01*
X33611904Y-67499404D01*
X33488095Y-67499404D01*
X33178571Y-67932738D02*
X33178571Y-68427976D01*
X33611904Y-68118452D02*
X32497619Y-68118452D01*
X32373809Y-68180357D01*
X32311904Y-68304166D01*
X32311904Y-68427976D01*
X32311904Y-68861309D02*
X33611904Y-68861309D01*
X32311904Y-69418452D02*
X32992857Y-69418452D01*
X33116666Y-69356547D01*
X33178571Y-69232738D01*
X33178571Y-69047023D01*
X33116666Y-68923214D01*
X33054761Y-68861309D01*
X33178571Y-70594642D02*
X32311904Y-70594642D01*
X33178571Y-70037500D02*
X32497619Y-70037500D01*
X32373809Y-70099404D01*
X32311904Y-70223214D01*
X32311904Y-70408928D01*
X32373809Y-70532738D01*
X32435714Y-70594642D01*
X32311904Y-71213690D02*
X33611904Y-71213690D01*
X33116666Y-71213690D02*
X33178571Y-71337500D01*
X33178571Y-71585119D01*
X33116666Y-71708928D01*
X33054761Y-71770833D01*
X32930952Y-71832738D01*
X32559523Y-71832738D01*
X32435714Y-71770833D01*
X32373809Y-71708928D01*
X32311904Y-71585119D01*
X32311904Y-71337500D01*
X32373809Y-71213690D01*
X32435714Y-72389880D02*
X32373809Y-72451785D01*
X32311904Y-72389880D01*
X32373809Y-72327976D01*
X32435714Y-72389880D01*
X32311904Y-72389880D01*
X32373809Y-73566071D02*
X32311904Y-73442261D01*
X32311904Y-73194642D01*
X32373809Y-73070833D01*
X32435714Y-73008928D01*
X32559523Y-72947023D01*
X32930952Y-72947023D01*
X33054761Y-73008928D01*
X33116666Y-73070833D01*
X33178571Y-73194642D01*
X33178571Y-73442261D01*
X33116666Y-73566071D01*
X32311904Y-74308928D02*
X32373809Y-74185119D01*
X32435714Y-74123214D01*
X32559523Y-74061309D01*
X32930952Y-74061309D01*
X33054761Y-74123214D01*
X33116666Y-74185119D01*
X33178571Y-74308928D01*
X33178571Y-74494642D01*
X33116666Y-74618452D01*
X33054761Y-74680357D01*
X32930952Y-74742261D01*
X32559523Y-74742261D01*
X32435714Y-74680357D01*
X32373809Y-74618452D01*
X32311904Y-74494642D01*
X32311904Y-74308928D01*
X32311904Y-75299404D02*
X33178571Y-75299404D01*
X33054761Y-75299404D02*
X33116666Y-75361309D01*
X33178571Y-75485119D01*
X33178571Y-75670833D01*
X33116666Y-75794642D01*
X32992857Y-75856547D01*
X32311904Y-75856547D01*
X32992857Y-75856547D02*
X33116666Y-75918452D01*
X33178571Y-76042261D01*
X33178571Y-76227976D01*
X33116666Y-76351785D01*
X32992857Y-76413690D01*
X32311904Y-76413690D01*
X33673809Y-77961309D02*
X32002380Y-76847023D01*
X32311904Y-78394642D02*
X33611904Y-78394642D01*
X32807142Y-78518452D02*
X32311904Y-78889880D01*
X33178571Y-78889880D02*
X32683333Y-78394642D01*
X32311904Y-79447023D02*
X33178571Y-79447023D01*
X33611904Y-79447023D02*
X33550000Y-79385119D01*
X33488095Y-79447023D01*
X33550000Y-79508928D01*
X33611904Y-79447023D01*
X33488095Y-79447023D01*
X33178571Y-80623214D02*
X32311904Y-80623214D01*
X33178571Y-80066071D02*
X32497619Y-80066071D01*
X32373809Y-80127976D01*
X32311904Y-80251785D01*
X32311904Y-80437499D01*
X32373809Y-80561309D01*
X32435714Y-80623214D01*
X33673809Y-82170833D02*
X32002380Y-81056547D01*
X33178571Y-82604166D02*
X32311904Y-82604166D01*
X33054761Y-82604166D02*
X33116666Y-82666071D01*
X33178571Y-82789880D01*
X33178571Y-82975595D01*
X33116666Y-83099404D01*
X32992857Y-83161309D01*
X32311904Y-83161309D01*
X32373809Y-84275595D02*
X32311904Y-84151785D01*
X32311904Y-83904166D01*
X32373809Y-83780357D01*
X32497619Y-83718452D01*
X32992857Y-83718452D01*
X33116666Y-83780357D01*
X33178571Y-83904166D01*
X33178571Y-84151785D01*
X33116666Y-84275595D01*
X32992857Y-84337500D01*
X32869047Y-84337500D01*
X32745238Y-83718452D01*
X33178571Y-84708928D02*
X33178571Y-85204166D01*
X33611904Y-84894642D02*
X32497619Y-84894642D01*
X32373809Y-84956547D01*
X32311904Y-85080357D01*
X32311904Y-85204166D01*
X32311904Y-85637499D02*
X33178571Y-85637499D01*
X33054761Y-85637499D02*
X33116666Y-85699404D01*
X33178571Y-85823214D01*
X33178571Y-86008928D01*
X33116666Y-86132738D01*
X32992857Y-86194642D01*
X32311904Y-86194642D01*
X32992857Y-86194642D02*
X33116666Y-86256547D01*
X33178571Y-86380357D01*
X33178571Y-86566071D01*
X33116666Y-86689880D01*
X32992857Y-86751785D01*
X32311904Y-86751785D01*
X32373809Y-87866071D02*
X32311904Y-87742261D01*
X32311904Y-87494642D01*
X32373809Y-87370833D01*
X32497619Y-87308928D01*
X32992857Y-87308928D01*
X33116666Y-87370833D01*
X33178571Y-87494642D01*
X33178571Y-87742261D01*
X33116666Y-87866071D01*
X32992857Y-87927976D01*
X32869047Y-87927976D01*
X32745238Y-87308928D01*
X33178571Y-88299404D02*
X33178571Y-88794642D01*
X33611904Y-88485119D02*
X32497619Y-88485119D01*
X32373809Y-88547023D01*
X32311904Y-88670833D01*
X32311904Y-88794642D01*
X32373809Y-89723214D02*
X32311904Y-89599404D01*
X32311904Y-89351785D01*
X32373809Y-89227976D01*
X32497619Y-89166071D01*
X32992857Y-89166071D01*
X33116666Y-89227976D01*
X33178571Y-89351785D01*
X33178571Y-89599404D01*
X33116666Y-89723214D01*
X32992857Y-89785119D01*
X32869047Y-89785119D01*
X32745238Y-89166071D01*
X32311904Y-90342261D02*
X33178571Y-90342261D01*
X32930952Y-90342261D02*
X33054761Y-90404166D01*
X33116666Y-90466071D01*
X33178571Y-90589880D01*
X33178571Y-90713690D01*
D11*
X131000000Y-90000000D02*
X131000000Y-76000000D01*
X126000000Y-76000000D02*
X131000000Y-76000000D01*
D12*
X66000000Y-91500000D02*
X66000000Y-93500000D01*
X151000000Y-91500000D02*
X151000000Y-93500000D01*
X66000000Y-56500000D02*
X66000000Y-58500000D01*
X65000000Y-57500000D02*
X67000000Y-57500000D01*
X151000000Y-56500000D02*
X151000000Y-58500000D01*
X150000000Y-57500000D02*
X152000000Y-57500000D01*
X236000000Y-93500000D02*
X236000000Y-91500000D01*
X236000000Y-58500000D02*
X236000000Y-56500000D01*
X235000000Y-57500000D02*
X237000000Y-57500000D01*
X244000000Y-52000000D02*
X246000000Y-52000000D01*
X210000000Y-51000000D02*
X210000000Y-53000000D01*
X209000000Y-52000000D02*
X211000000Y-52000000D01*
X159000000Y-52000000D02*
X161000000Y-52000000D01*
X126000000Y-52000000D02*
X124000000Y-52000000D01*
X125000000Y-51000000D02*
X125000000Y-53000000D01*
X74000000Y-52000000D02*
X76000000Y-52000000D01*
X41000000Y-52000000D02*
X39000000Y-52000000D01*
X40000000Y-51000000D02*
X40000000Y-53000000D01*
D11*
X122000000Y-85000000D02*
X124000000Y-83000000D01*
X122000000Y-81000000D02*
X124000000Y-83000000D01*
D13*
X124000000Y-83000000D02*
X122000000Y-81000000D01*
D11*
X124000000Y-83000000D02*
X114000000Y-83000000D01*
X81000000Y-86000000D02*
X81000000Y-80000000D01*
X78000000Y-86000000D02*
X81000000Y-86000000D01*
X78000000Y-80000000D02*
X81000000Y-80000000D01*
X131000000Y-90000000D02*
X126000000Y-90000000D01*
X126000000Y-74000000D02*
X78000000Y-74000000D01*
X126000000Y-92000000D02*
X126000000Y-74000000D01*
X78000000Y-92000000D02*
X126000000Y-92000000D01*
X78000000Y-74000000D02*
X78000000Y-92000000D01*
D13*
X122855000Y-69270000D02*
X74535000Y-69270000D01*
X74535000Y-69270000D02*
X74535000Y-71930000D01*
X74535000Y-71930000D02*
X122855000Y-71930000D01*
X122855000Y-71930000D02*
X122855000Y-69270000D01*
X124125000Y-69270000D02*
X125455000Y-69270000D01*
X125455000Y-69270000D02*
X125455000Y-70600000D01*
X125455000Y-94670000D02*
X125455000Y-96000000D01*
X124125000Y-94670000D02*
X125455000Y-94670000D01*
X122855000Y-97330000D02*
X122855000Y-94670000D01*
X74535000Y-97330000D02*
X122855000Y-97330000D01*
X74535000Y-94670000D02*
X74535000Y-97330000D01*
X122855000Y-94670000D02*
X74535000Y-94670000D01*
X45120000Y-75600000D02*
X45120000Y-74400000D01*
X46880000Y-74400000D02*
X46880000Y-75600000D01*
X131880000Y-74400000D02*
X131880000Y-75600000D01*
X130120000Y-75600000D02*
X130120000Y-74400000D01*
X215120000Y-75600000D02*
X215120000Y-74400000D01*
X216880000Y-74400000D02*
X216880000Y-75600000D01*
X241800000Y-78150000D02*
X241550000Y-78150000D01*
X241550000Y-78150000D02*
X241550000Y-71850000D01*
X241550000Y-71850000D02*
X241800000Y-71850000D01*
X246300000Y-78150000D02*
X243700000Y-78150000D01*
X248200000Y-71850000D02*
X248450000Y-71850000D01*
X248450000Y-71850000D02*
X248450000Y-78150000D01*
X248450000Y-78150000D02*
X248200000Y-78150000D01*
X243700000Y-71850000D02*
X246300000Y-71850000D01*
X59000000Y-74850000D02*
G75*
G03*
X59000000Y-74850000I-1500000J0D01*
G01*
X57590657Y-80059257D02*
G75*
G02*
X53628000Y-78336000I-90657J5209257D01*
G01*
X52466928Y-76198867D02*
G75*
G02*
X52385000Y-73856000I5033072J1348867D01*
G01*
X53509383Y-71500053D02*
G75*
G02*
X62577000Y-73679000I3990617J-3349947D01*
G01*
X62508173Y-76286071D02*
G75*
G02*
X57500000Y-80060000I-5008173J1436071D01*
G01*
X144000000Y-74850000D02*
G75*
G03*
X144000000Y-74850000I-1500000J0D01*
G01*
X147508173Y-76286071D02*
G75*
G02*
X142500000Y-80060000I-5008173J1436071D01*
G01*
X138509383Y-71500053D02*
G75*
G02*
X147577000Y-73679000I3990617J-3349947D01*
G01*
X137466928Y-76198867D02*
G75*
G02*
X137385000Y-73856000I5033072J1348867D01*
G01*
X142590657Y-80059257D02*
G75*
G02*
X138628000Y-78336000I-90657J5209257D01*
G01*
X229000000Y-74850000D02*
G75*
G03*
X229000000Y-74850000I-1500000J0D01*
G01*
X227590657Y-80059257D02*
G75*
G02*
X223628000Y-78336000I-90657J5209257D01*
G01*
X222466928Y-76198867D02*
G75*
G02*
X222385000Y-73856000I5033072J1348867D01*
G01*
X223509383Y-71500053D02*
G75*
G02*
X232577000Y-73679000I3990617J-3349947D01*
G01*
X232508173Y-76286071D02*
G75*
G02*
X227500000Y-80060000I-5008173J1436071D01*
G01*
D14*
X125907380Y-70933333D02*
X126621666Y-70933333D01*
X126764523Y-70980952D01*
X126859761Y-71076190D01*
X126907380Y-71219047D01*
X126907380Y-71314285D01*
X126907380Y-69933333D02*
X126907380Y-70504761D01*
X126907380Y-70219047D02*
X125907380Y-70219047D01*
X126050238Y-70314285D01*
X126145476Y-70409523D01*
X126193095Y-70504761D01*
X125907380Y-96333333D02*
X126621666Y-96333333D01*
X126764523Y-96380952D01*
X126859761Y-96476190D01*
X126907380Y-96619047D01*
X126907380Y-96714285D01*
X126002619Y-95904761D02*
X125955000Y-95857142D01*
X125907380Y-95761904D01*
X125907380Y-95523809D01*
X125955000Y-95428571D01*
X126002619Y-95380952D01*
X126097857Y-95333333D01*
X126193095Y-95333333D01*
X126335952Y-95380952D01*
X126907380Y-95952380D01*
X126907380Y-95333333D01*
X48152380Y-75166666D02*
X47676190Y-75500000D01*
X48152380Y-75738095D02*
X47152380Y-75738095D01*
X47152380Y-75357142D01*
X47200000Y-75261904D01*
X47247619Y-75214285D01*
X47342857Y-75166666D01*
X47485714Y-75166666D01*
X47580952Y-75214285D01*
X47628571Y-75261904D01*
X47676190Y-75357142D01*
X47676190Y-75738095D01*
X48152380Y-74214285D02*
X48152380Y-74785714D01*
X48152380Y-74500000D02*
X47152380Y-74500000D01*
X47295238Y-74595238D01*
X47390476Y-74690476D01*
X47438095Y-74785714D01*
X133152380Y-75166666D02*
X132676190Y-75500000D01*
X133152380Y-75738095D02*
X132152380Y-75738095D01*
X132152380Y-75357142D01*
X132200000Y-75261904D01*
X132247619Y-75214285D01*
X132342857Y-75166666D01*
X132485714Y-75166666D01*
X132580952Y-75214285D01*
X132628571Y-75261904D01*
X132676190Y-75357142D01*
X132676190Y-75738095D01*
X132247619Y-74785714D02*
X132200000Y-74738095D01*
X132152380Y-74642857D01*
X132152380Y-74404761D01*
X132200000Y-74309523D01*
X132247619Y-74261904D01*
X132342857Y-74214285D01*
X132438095Y-74214285D01*
X132580952Y-74261904D01*
X133152380Y-74833333D01*
X133152380Y-74214285D01*
X218152380Y-75166666D02*
X217676190Y-75500000D01*
X218152380Y-75738095D02*
X217152380Y-75738095D01*
X217152380Y-75357142D01*
X217200000Y-75261904D01*
X217247619Y-75214285D01*
X217342857Y-75166666D01*
X217485714Y-75166666D01*
X217580952Y-75214285D01*
X217628571Y-75261904D01*
X217676190Y-75357142D01*
X217676190Y-75738095D01*
X217152380Y-74833333D02*
X217152380Y-74214285D01*
X217533333Y-74547619D01*
X217533333Y-74404761D01*
X217580952Y-74309523D01*
X217628571Y-74261904D01*
X217723809Y-74214285D01*
X217961904Y-74214285D01*
X218057142Y-74261904D01*
X218104761Y-74309523D01*
X218152380Y-74404761D01*
X218152380Y-74690476D01*
X218104761Y-74785714D01*
X218057142Y-74833333D01*
X240904761Y-76333333D02*
X240952380Y-76190476D01*
X240952380Y-75952380D01*
X240904761Y-75857142D01*
X240857142Y-75809523D01*
X240761904Y-75761904D01*
X240666666Y-75761904D01*
X240571428Y-75809523D01*
X240523809Y-75857142D01*
X240476190Y-75952380D01*
X240428571Y-76142857D01*
X240380952Y-76238095D01*
X240333333Y-76285714D01*
X240238095Y-76333333D01*
X240142857Y-76333333D01*
X240047619Y-76285714D01*
X240000000Y-76238095D01*
X239952380Y-76142857D01*
X239952380Y-75904761D01*
X240000000Y-75761904D01*
X239952380Y-75428571D02*
X240952380Y-75190476D01*
X240238095Y-75000000D01*
X240952380Y-74809523D01*
X239952380Y-74571428D01*
X240952380Y-73666666D02*
X240952380Y-74238095D01*
X240952380Y-73952380D02*
X239952380Y-73952380D01*
X240095238Y-74047619D01*
X240190476Y-74142857D01*
X240238095Y-74238095D01*
X56904761Y-68902380D02*
X56571428Y-68426190D01*
X56333333Y-68902380D02*
X56333333Y-67902380D01*
X56714285Y-67902380D01*
X56809523Y-67950000D01*
X56857142Y-67997619D01*
X56904761Y-68092857D01*
X56904761Y-68235714D01*
X56857142Y-68330952D01*
X56809523Y-68378571D01*
X56714285Y-68426190D01*
X56333333Y-68426190D01*
X57190476Y-67902380D02*
X57523809Y-68902380D01*
X57857142Y-67902380D01*
X58714285Y-68902380D02*
X58142857Y-68902380D01*
X58428571Y-68902380D02*
X58428571Y-67902380D01*
X58333333Y-68045238D01*
X58238095Y-68140476D01*
X58142857Y-68188095D01*
X141904761Y-68902380D02*
X141571428Y-68426190D01*
X141333333Y-68902380D02*
X141333333Y-67902380D01*
X141714285Y-67902380D01*
X141809523Y-67950000D01*
X141857142Y-67997619D01*
X141904761Y-68092857D01*
X141904761Y-68235714D01*
X141857142Y-68330952D01*
X141809523Y-68378571D01*
X141714285Y-68426190D01*
X141333333Y-68426190D01*
X142190476Y-67902380D02*
X142523809Y-68902380D01*
X142857142Y-67902380D01*
X143142857Y-67997619D02*
X143190476Y-67950000D01*
X143285714Y-67902380D01*
X143523809Y-67902380D01*
X143619047Y-67950000D01*
X143666666Y-67997619D01*
X143714285Y-68092857D01*
X143714285Y-68188095D01*
X143666666Y-68330952D01*
X143095238Y-68902380D01*
X143714285Y-68902380D01*
X226904761Y-68902380D02*
X226571428Y-68426190D01*
X226333333Y-68902380D02*
X226333333Y-67902380D01*
X226714285Y-67902380D01*
X226809523Y-67950000D01*
X226857142Y-67997619D01*
X226904761Y-68092857D01*
X226904761Y-68235714D01*
X226857142Y-68330952D01*
X226809523Y-68378571D01*
X226714285Y-68426190D01*
X226333333Y-68426190D01*
X227190476Y-67902380D02*
X227523809Y-68902380D01*
X227857142Y-67902380D01*
X228095238Y-67902380D02*
X228714285Y-67902380D01*
X228380952Y-68283333D01*
X228523809Y-68283333D01*
X228619047Y-68330952D01*
X228666666Y-68378571D01*
X228714285Y-68473809D01*
X228714285Y-68711904D01*
X228666666Y-68807142D01*
X228619047Y-68854761D01*
X228523809Y-68902380D01*
X228238095Y-68902380D01*
X228142857Y-68854761D01*
X228095238Y-68807142D01*
M02*
