G04 #@! TF.GenerationSoftware,KiCad,Pcbnew,(5.1.6)-1*
G04 #@! TF.CreationDate,2020-09-05T20:44:27+02:00*
G04 #@! TF.ProjectId,netmeter_base,6e65746d-6574-4657-925f-626173652e6b,rev?*
G04 #@! TF.SameCoordinates,Original*
G04 #@! TF.FileFunction,Legend,Bot*
G04 #@! TF.FilePolarity,Positive*
%FSLAX46Y46*%
G04 Gerber Fmt 4.6, Leading zero omitted, Abs format (unit mm)*
G04 Created by KiCad (PCBNEW (5.1.6)-1) date 2020-09-05 20:44:27*
%MOMM*%
%LPD*%
G01*
G04 APERTURE LIST*
%ADD10C,0.200000*%
G04 APERTURE END LIST*
D10*
X251891904Y-96452380D02*
X251891904Y-97166666D01*
X251939523Y-97309523D01*
X252034761Y-97404761D01*
X252177619Y-97452380D01*
X252272857Y-97452380D01*
X250939523Y-97452380D02*
X251415714Y-97452380D01*
X251415714Y-96452380D01*
X250034761Y-97357142D02*
X250082380Y-97404761D01*
X250225238Y-97452380D01*
X250320476Y-97452380D01*
X250463333Y-97404761D01*
X250558571Y-97309523D01*
X250606190Y-97214285D01*
X250653809Y-97023809D01*
X250653809Y-96880952D01*
X250606190Y-96690476D01*
X250558571Y-96595238D01*
X250463333Y-96500000D01*
X250320476Y-96452380D01*
X250225238Y-96452380D01*
X250082380Y-96500000D01*
X250034761Y-96547619D01*
X249320476Y-96452380D02*
X249320476Y-97166666D01*
X249368095Y-97309523D01*
X249463333Y-97404761D01*
X249606190Y-97452380D01*
X249701428Y-97452380D01*
X248368095Y-97452380D02*
X248844285Y-97452380D01*
X248844285Y-96452380D01*
X247463333Y-97357142D02*
X247510952Y-97404761D01*
X247653809Y-97452380D01*
X247749047Y-97452380D01*
X247891904Y-97404761D01*
X247987142Y-97309523D01*
X248034761Y-97214285D01*
X248082380Y-97023809D01*
X248082380Y-96880952D01*
X248034761Y-96690476D01*
X247987142Y-96595238D01*
X247891904Y-96500000D01*
X247749047Y-96452380D01*
X247653809Y-96452380D01*
X247510952Y-96500000D01*
X247463333Y-96547619D01*
X246749047Y-96452380D02*
X246749047Y-97166666D01*
X246796666Y-97309523D01*
X246891904Y-97404761D01*
X247034761Y-97452380D01*
X247130000Y-97452380D01*
X245796666Y-97452380D02*
X246272857Y-97452380D01*
X246272857Y-96452380D01*
X244891904Y-97357142D02*
X244939523Y-97404761D01*
X245082380Y-97452380D01*
X245177619Y-97452380D01*
X245320476Y-97404761D01*
X245415714Y-97309523D01*
X245463333Y-97214285D01*
X245510952Y-97023809D01*
X245510952Y-96880952D01*
X245463333Y-96690476D01*
X245415714Y-96595238D01*
X245320476Y-96500000D01*
X245177619Y-96452380D01*
X245082380Y-96452380D01*
X244939523Y-96500000D01*
X244891904Y-96547619D01*
X244177619Y-96452380D02*
X244177619Y-97166666D01*
X244225238Y-97309523D01*
X244320476Y-97404761D01*
X244463333Y-97452380D01*
X244558571Y-97452380D01*
X243225238Y-97452380D02*
X243701428Y-97452380D01*
X243701428Y-96452380D01*
X242320476Y-97357142D02*
X242368095Y-97404761D01*
X242510952Y-97452380D01*
X242606190Y-97452380D01*
X242749047Y-97404761D01*
X242844285Y-97309523D01*
X242891904Y-97214285D01*
X242939523Y-97023809D01*
X242939523Y-96880952D01*
X242891904Y-96690476D01*
X242844285Y-96595238D01*
X242749047Y-96500000D01*
X242606190Y-96452380D01*
X242510952Y-96452380D01*
X242368095Y-96500000D01*
X242320476Y-96547619D01*
M02*
