G04 #@! TF.GenerationSoftware,KiCad,Pcbnew,(5.1.6)-1*
G04 #@! TF.CreationDate,2020-09-05T20:44:27+02:00*
G04 #@! TF.ProjectId,netmeter_base,6e65746d-6574-4657-925f-626173652e6b,rev?*
G04 #@! TF.SameCoordinates,Original*
G04 #@! TF.FileFunction,Copper,L1,Top*
G04 #@! TF.FilePolarity,Positive*
%FSLAX46Y46*%
G04 Gerber Fmt 4.6, Leading zero omitted, Abs format (unit mm)*
G04 Created by KiCad (PCBNEW (5.1.6)-1) date 2020-09-05 20:44:27*
%MOMM*%
%LPD*%
G01*
G04 APERTURE LIST*
G04 #@! TA.AperFunction,ComponentPad*
%ADD10C,8.600000*%
G04 #@! TD*
G04 #@! TA.AperFunction,ComponentPad*
%ADD11C,0.900000*%
G04 #@! TD*
G04 #@! TA.AperFunction,ComponentPad*
%ADD12O,1.700000X1.700000*%
G04 #@! TD*
G04 #@! TA.AperFunction,ComponentPad*
%ADD13R,1.700000X1.700000*%
G04 #@! TD*
G04 #@! TA.AperFunction,SMDPad,CuDef*
%ADD14R,1.300000X1.500000*%
G04 #@! TD*
G04 #@! TA.AperFunction,SMDPad,CuDef*
%ADD15R,1.300000X1.550000*%
G04 #@! TD*
G04 #@! TA.AperFunction,ComponentPad*
%ADD16C,2.340000*%
G04 #@! TD*
G04 #@! TA.AperFunction,Conductor*
%ADD17C,1.000000*%
G04 #@! TD*
G04 APERTURE END LIST*
D10*
X40000000Y-60000000D03*
D11*
X43225000Y-60000000D03*
X42280419Y-62280419D03*
X40000000Y-63225000D03*
X37719581Y-62280419D03*
X36775000Y-60000000D03*
X37719581Y-57719581D03*
X40000000Y-56775000D03*
X42280419Y-57719581D03*
X77280419Y-57719581D03*
X75000000Y-56775000D03*
X72719581Y-57719581D03*
X71775000Y-60000000D03*
X72719581Y-62280419D03*
X75000000Y-63225000D03*
X77280419Y-62280419D03*
X78225000Y-60000000D03*
D10*
X75000000Y-60000000D03*
D11*
X127280419Y-57719581D03*
X125000000Y-56775000D03*
X122719581Y-57719581D03*
X121775000Y-60000000D03*
X122719581Y-62280419D03*
X125000000Y-63225000D03*
X127280419Y-62280419D03*
X128225000Y-60000000D03*
D10*
X125000000Y-60000000D03*
D11*
X162280419Y-57719581D03*
X160000000Y-56775000D03*
X157719581Y-57719581D03*
X156775000Y-60000000D03*
X157719581Y-62280419D03*
X160000000Y-63225000D03*
X162280419Y-62280419D03*
X163225000Y-60000000D03*
D10*
X160000000Y-60000000D03*
X210000000Y-60000000D03*
D11*
X213225000Y-60000000D03*
X212280419Y-62280419D03*
X210000000Y-63225000D03*
X207719581Y-62280419D03*
X206775000Y-60000000D03*
X207719581Y-57719581D03*
X210000000Y-56775000D03*
X212280419Y-57719581D03*
D10*
X245000000Y-60000000D03*
D11*
X248225000Y-60000000D03*
X247280419Y-62280419D03*
X245000000Y-63225000D03*
X242719581Y-62280419D03*
X241775000Y-60000000D03*
X242719581Y-57719581D03*
X245000000Y-56775000D03*
X247280419Y-57719581D03*
D12*
X75865000Y-70600000D03*
X78405000Y-70600000D03*
X80945000Y-70600000D03*
X83485000Y-70600000D03*
X86025000Y-70600000D03*
X88565000Y-70600000D03*
X91105000Y-70600000D03*
X93645000Y-70600000D03*
X96185000Y-70600000D03*
X98725000Y-70600000D03*
X101265000Y-70600000D03*
X103805000Y-70600000D03*
X106345000Y-70600000D03*
X108885000Y-70600000D03*
X111425000Y-70600000D03*
X113965000Y-70600000D03*
X116505000Y-70600000D03*
X119045000Y-70600000D03*
X121585000Y-70600000D03*
D13*
X124125000Y-70600000D03*
X124125000Y-96000000D03*
D12*
X121585000Y-96000000D03*
X119045000Y-96000000D03*
X116505000Y-96000000D03*
X113965000Y-96000000D03*
X111425000Y-96000000D03*
X108885000Y-96000000D03*
X106345000Y-96000000D03*
X103805000Y-96000000D03*
X101265000Y-96000000D03*
X98725000Y-96000000D03*
X96185000Y-96000000D03*
X93645000Y-96000000D03*
X91105000Y-96000000D03*
X88565000Y-96000000D03*
X86025000Y-96000000D03*
X83485000Y-96000000D03*
X80945000Y-96000000D03*
X78405000Y-96000000D03*
X75865000Y-96000000D03*
D14*
X46000000Y-76350000D03*
X46000000Y-73650000D03*
X131000000Y-73650000D03*
X131000000Y-76350000D03*
X216000000Y-76350000D03*
X216000000Y-73650000D03*
D15*
X247250000Y-71025000D03*
X247250000Y-78975000D03*
X242750000Y-71025000D03*
X242750000Y-78975000D03*
D10*
X57500000Y-57500000D03*
D11*
X60725000Y-57500000D03*
X59780419Y-59780419D03*
X57500000Y-60725000D03*
X55219581Y-59780419D03*
X54275000Y-57500000D03*
X55219581Y-55219581D03*
X57500000Y-54275000D03*
X59780419Y-55219581D03*
X59780419Y-90219581D03*
X57500000Y-89275000D03*
X55219581Y-90219581D03*
X54275000Y-92500000D03*
X55219581Y-94780419D03*
X57500000Y-95725000D03*
X59780419Y-94780419D03*
X60725000Y-92500000D03*
D10*
X57500000Y-92500000D03*
D11*
X144780419Y-55219581D03*
X142500000Y-54275000D03*
X140219581Y-55219581D03*
X139275000Y-57500000D03*
X140219581Y-59780419D03*
X142500000Y-60725000D03*
X144780419Y-59780419D03*
X145725000Y-57500000D03*
D10*
X142500000Y-57500000D03*
D11*
X144780419Y-90219581D03*
X142500000Y-89275000D03*
X140219581Y-90219581D03*
X139275000Y-92500000D03*
X140219581Y-94780419D03*
X142500000Y-95725000D03*
X144780419Y-94780419D03*
X145725000Y-92500000D03*
D10*
X142500000Y-92500000D03*
X227500000Y-57500000D03*
D11*
X230725000Y-57500000D03*
X229780419Y-59780419D03*
X227500000Y-60725000D03*
X225219581Y-59780419D03*
X224275000Y-57500000D03*
X225219581Y-55219581D03*
X227500000Y-54275000D03*
X229780419Y-55219581D03*
X229780419Y-90219581D03*
X227500000Y-89275000D03*
X225219581Y-90219581D03*
X224275000Y-92500000D03*
X225219581Y-94780419D03*
X227500000Y-95725000D03*
X229780419Y-94780419D03*
X230725000Y-92500000D03*
D10*
X227500000Y-92500000D03*
D16*
X52500000Y-77500000D03*
X62500000Y-75000000D03*
X52500000Y-72500000D03*
X137500000Y-72500000D03*
X147500000Y-75000000D03*
X137500000Y-77500000D03*
X222500000Y-77500000D03*
X232500000Y-75000000D03*
X222500000Y-72500000D03*
D17*
X55000000Y-60000000D02*
X57500000Y-57500000D01*
X40000000Y-60000000D02*
X55000000Y-60000000D01*
X46000000Y-76350000D02*
X42350000Y-76350000D01*
X40000000Y-74000000D02*
X40000000Y-60000000D01*
X42350000Y-76350000D02*
X40000000Y-74000000D01*
X227500000Y-92500000D02*
X242500000Y-92500000D01*
X247250000Y-87750000D02*
X247250000Y-78975000D01*
X242500000Y-92500000D02*
X247250000Y-87750000D01*
X247250000Y-78975000D02*
X247250000Y-71025000D01*
X247250000Y-62250000D02*
X245000000Y-60000000D01*
X247250000Y-71025000D02*
X247250000Y-62250000D01*
X227500000Y-92500000D02*
X142500000Y-92500000D01*
X75000000Y-60000000D02*
X84000000Y-60000000D01*
X91105000Y-67105000D02*
X91105000Y-70600000D01*
X84000000Y-60000000D02*
X91105000Y-67105000D01*
X124125000Y-96000000D02*
X124125000Y-94125000D01*
X91105000Y-70600000D02*
X91105000Y-74895000D01*
X108885000Y-96000000D02*
X108885000Y-94115000D01*
X108885000Y-94115000D02*
X110000000Y-93000000D01*
X123000000Y-93000000D02*
X124125000Y-94125000D01*
X110000000Y-93000000D02*
X123000000Y-93000000D01*
X108885000Y-96000000D02*
X108885000Y-93885000D01*
X91105000Y-76105000D02*
X91105000Y-74895000D01*
X57500000Y-92500000D02*
X59000000Y-91000000D01*
X108000000Y-93000000D02*
X58000000Y-93000000D01*
X108885000Y-93885000D02*
X108000000Y-93000000D01*
X58000000Y-93000000D02*
X57500000Y-92500000D01*
X108000000Y-93000000D02*
X91105000Y-76105000D01*
X124125000Y-96000000D02*
X124125000Y-94875000D01*
X124125000Y-94875000D02*
X126000000Y-93000000D01*
X142000000Y-93000000D02*
X142500000Y-92500000D01*
X126000000Y-93000000D02*
X142000000Y-93000000D01*
X140000000Y-60000000D02*
X142500000Y-57500000D01*
X125000000Y-60000000D02*
X140000000Y-60000000D01*
X131000000Y-76350000D02*
X129350000Y-76350000D01*
X129350000Y-76350000D02*
X128000000Y-75000000D01*
X128000000Y-63000000D02*
X125000000Y-60000000D01*
X128000000Y-75000000D02*
X128000000Y-63000000D01*
X242750000Y-78975000D02*
X242750000Y-71025000D01*
X241000000Y-85000000D02*
X112000000Y-85000000D01*
X101265000Y-74265000D02*
X101265000Y-70600000D01*
X242750000Y-83250000D02*
X241000000Y-85000000D01*
X112000000Y-85000000D02*
X101265000Y-74265000D01*
X242750000Y-78975000D02*
X242750000Y-83250000D01*
X232500000Y-79500000D02*
X232500000Y-75000000D01*
X113000000Y-83000000D02*
X229000000Y-83000000D01*
X229000000Y-83000000D02*
X232500000Y-79500000D01*
X103805000Y-70600000D02*
X103805000Y-73805000D01*
X103805000Y-73805000D02*
X113000000Y-83000000D01*
X142500000Y-80000000D02*
X147500000Y-75000000D01*
X141500000Y-81000000D02*
X142500000Y-80000000D01*
X114000000Y-81000000D02*
X141500000Y-81000000D01*
X106345000Y-70600000D02*
X106345000Y-73345000D01*
X106345000Y-73345000D02*
X114000000Y-81000000D01*
X51350000Y-73650000D02*
X52500000Y-72500000D01*
X46000000Y-73650000D02*
X51350000Y-73650000D01*
X136350000Y-73650000D02*
X137500000Y-72500000D01*
X131000000Y-73650000D02*
X136350000Y-73650000D01*
X221350000Y-73650000D02*
X222500000Y-72500000D01*
X216000000Y-73650000D02*
X221350000Y-73650000D01*
X216000000Y-76350000D02*
X212350000Y-76350000D01*
X210000000Y-74000000D02*
X210000000Y-60000000D01*
X212350000Y-76350000D02*
X210000000Y-74000000D01*
X225000000Y-60000000D02*
X227500000Y-57500000D01*
X210000000Y-60000000D02*
X225000000Y-60000000D01*
M02*
