M48
; DRILL file {KiCad (5.1.6)-1} date 09/05/20 20:44:34
; FORMAT={-:-/ absolute / inch / decimal}
; #@! TF.CreationDate,2020-09-05T20:44:34+02:00
; #@! TF.GenerationSoftware,Kicad,Pcbnew,(5.1.6)-1
; #@! TF.FileFunction,Plated,1,2,PTH
FMAT,2
INCH
T1C0.0236
T2C0.0394
T3C0.0512
T4C0.1693
%
G90
G05
T1
X9.5187Y-2.3622
X9.5559Y-2.2724
X9.5559Y-2.452
X9.6457Y-2.2352
X9.6457Y-2.4892
X9.7354Y-2.2724
X9.7354Y-2.452
X9.7726Y-2.3622
X8.8297Y-2.2638
X8.8669Y-2.174
X8.8669Y-2.3536
X8.9567Y-2.1368
X8.9567Y-2.3907
X9.0465Y-2.174
X9.0465Y-2.3536
X9.0837Y-2.2638
X8.1407Y-2.3622
X8.1779Y-2.2724
X8.1779Y-2.452
X8.2677Y-2.2352
X8.2677Y-2.4892
X8.3575Y-2.2724
X8.3575Y-2.452
X8.3947Y-2.3622
X1.4478Y-2.3622
X1.485Y-2.2724
X1.485Y-2.452
X1.5748Y-2.2352
X1.5748Y-2.4892
X1.6646Y-2.2724
X1.6646Y-2.452
X1.7018Y-2.3622
X8.8297Y-3.6417
X8.8669Y-3.552
X8.8669Y-3.7315
X8.9567Y-3.5148
X8.9567Y-3.7687
X9.0465Y-3.552
X9.0465Y-3.7315
X9.0837Y-3.6417
X4.7943Y-2.3622
X4.8315Y-2.2724
X4.8315Y-2.452
X4.9213Y-2.2352
X4.9213Y-2.4892
X5.011Y-2.2724
X5.011Y-2.452
X5.0482Y-2.3622
X6.1722Y-2.3622
X6.2094Y-2.2724
X6.2094Y-2.452
X6.2992Y-2.2352
X6.2992Y-2.4892
X6.389Y-2.2724
X6.389Y-2.452
X6.4262Y-2.3622
X5.4833Y-2.2638
X5.5205Y-2.174
X5.5205Y-2.3536
X5.6102Y-2.1368
X5.6102Y-2.3907
X5.7Y-2.174
X5.7Y-2.3536
X5.7372Y-2.2638
X2.8258Y-2.3622
X2.863Y-2.2724
X2.863Y-2.452
X2.9528Y-2.2352
X2.9528Y-2.4892
X3.0425Y-2.2724
X3.0425Y-2.452
X3.0797Y-2.3622
X2.1368Y-3.6417
X2.174Y-3.552
X2.174Y-3.7315
X2.2638Y-3.5148
X2.2638Y-3.7687
X2.3536Y-3.552
X2.3536Y-3.7315
X2.3907Y-3.6417
X5.4833Y-3.6417
X5.5205Y-3.552
X5.5205Y-3.7315
X5.6102Y-3.5148
X5.6102Y-3.7687
X5.7Y-3.552
X5.7Y-3.7315
X5.7372Y-3.6417
X2.1368Y-2.2638
X2.174Y-2.174
X2.174Y-2.3536
X2.2638Y-2.1368
X2.2638Y-2.3907
X2.3536Y-2.174
X2.3536Y-2.3536
X2.3907Y-2.2638
T2
X2.9868Y-3.7795
X3.0868Y-3.7795
X3.1868Y-3.7795
X3.2868Y-3.7795
X3.3868Y-3.7795
X3.4868Y-3.7795
X3.5868Y-3.7795
X3.6868Y-3.7795
X3.7868Y-3.7795
X3.8868Y-3.7795
X3.9868Y-3.7795
X4.0868Y-3.7795
X4.1868Y-3.7795
X4.2868Y-3.7795
X4.3868Y-3.7795
X4.4868Y-3.7795
X4.5868Y-3.7795
X4.6868Y-3.7795
X4.7868Y-3.7795
X4.8868Y-3.7795
X2.9868Y-2.7795
X3.0868Y-2.7795
X3.1868Y-2.7795
X3.2868Y-2.7795
X3.3868Y-2.7795
X3.4868Y-2.7795
X3.5868Y-2.7795
X3.6868Y-2.7795
X3.7868Y-2.7795
X3.8868Y-2.7795
X3.9868Y-2.7795
X4.0868Y-2.7795
X4.1868Y-2.7795
X4.2868Y-2.7795
X4.3868Y-2.7795
X4.4868Y-2.7795
X4.5868Y-2.7795
X4.6868Y-2.7795
X4.7868Y-2.7795
X4.8868Y-2.7795
T3
X5.4134Y-2.8543
X5.4134Y-3.0512
X5.8071Y-2.9528
X2.0669Y-2.8543
X2.0669Y-3.0512
X2.4606Y-2.9528
X8.7598Y-2.8543
X8.7598Y-3.0512
X9.1535Y-2.9528
T4
X8.2677Y-2.3622
X8.9567Y-3.6417
X4.9213Y-2.3622
X6.2992Y-2.3622
X2.9528Y-2.3622
X5.6102Y-3.6417
X9.6457Y-2.3622
X8.9567Y-2.2638
X1.5748Y-2.3622
X5.6102Y-2.2638
X2.2638Y-3.6417
X2.2638Y-2.2638
T0
M30
